<?xml version="1.0" standalone="no"?>
<!DOCTYPE svg PUBLIC "-//W3C//DTD SVG 20010904//EN"
 "http://www.w3.org/TR/2001/REC-SVG-20010904/DTD/svg10.dtd">
<svg version="1.0" xmlns="http://www.w3.org/2000/svg"
 width="1000.000000pt" height="1000.000000pt" viewBox="0 0 1000.000000 1000.000000"
 preserveAspectRatio="xMidYMid meet">
<metadata>
Created by potrace 1.11, written by Peter Selinger 2001-2013
</metadata>
<g transform="translate(0.000000,1000.000000) scale(0.100000,-0.100000)"
fill="#000000" stroke="none">
<path d="M0 5000 l0 -5000 5000 0 5000 0 0 5000 0 5000 -5000 0 -5000 0 0
-5000z m5605 4221 c404 -29 569 -52 802 -111 382 -97 764 -283 1008 -490 359
-305 565 -791 565 -1335 0 -716 -359 -1319 -1003 -1686 -60 -34 -135 -73 -168
-87 -45 -20 -59 -32 -59 -47 0 -19 17 -25 153 -59 574 -142 1029 -434 1313
-842 276 -396 383 -987 288 -1584 -72 -453 -279 -868 -601 -1201 -332 -344
-839 -634 -1352 -775 -233 -64 -517 -111 -881 -145 -91 -9 -700 -13 -2222 -16
l-2098 -4 0 4201 0 4201 2048 -4 c1429 -3 2095 -8 2207 -16z"/>
<path d="M3510 6808 l0 -891 533 6 c724 10 907 23 1107 81 249 72 428 202 510
370 97 198 126 497 70 711 -90 342 -301 507 -740 580 -117 20 -578 34 -1102
35 l-378 0 0 -892z"/>
<path d="M3510 3425 l0 -1045 573 1 c735 0 1065 11 1217 38 314 55 583 176
739 331 87 86 131 155 177 278 44 118 65 225 71 367 8 181 -16 363 -68 505
-107 290 -405 472 -874 535 -156 21 -647 34 -1312 35 l-523 0 0 -1045z"/>
</g>
</svg>
