<?xml version="1.0" standalone="no"?>
<!DOCTYPE svg PUBLIC "-//W3C//DTD SVG 20010904//EN"
 "http://www.w3.org/TR/2001/REC-SVG-20010904/DTD/svg10.dtd">
<svg version="1.0" xmlns="http://www.w3.org/2000/svg"
 width="1000.000000pt" height="1000.000000pt" viewBox="0 0 1000.000000 1000.000000"
 preserveAspectRatio="xMidYMid meet">
<metadata>
Created by potrace 1.11, written by Peter Selinger 2001-2013
</metadata>
<g transform="translate(0.000000,1000.000000) scale(0.100000,-0.100000)"
fill="#000000" stroke="none">
<path d="M2461 9278 c2 -18 0 -39 -5 -46 -4 -6 -3 -12 2 -12 10 0 9 -36 -1
-46 -4 -4 -2 -13 4 -21 9 -10 8 -13 -2 -13 -11 0 -11 -2 1 -10 11 -7 11 -10 2
-10 -7 0 -10 -5 -7 -10 9 -15 10 -104 1 -118 -4 -7 -2 -12 4 -12 7 0 8 -6 0
-19 -6 -12 -6 -22 -1 -25 10 -7 9 -25 -2 -43 -5 -7 -4 -13 1 -13 4 0 6 -22 2
-50 -4 -27 -4 -50 0 -50 3 0 5 -18 3 -40 -2 -40 -1 -41 30 -39 101 4 924 -4
932 -9 5 -3 21 -7 35 -8 65 -6 187 -54 173 -68 -5 -4 -3 -7 2 -6 6 1 15 2 21
1 16 -2 84 -67 77 -75 -3 -3 -1 -6 5 -6 7 0 12 -7 12 -15 0 -8 4 -15 9 -15 5
0 14 -13 20 -30 5 -16 7 -30 4 -30 -4 0 1 -6 12 -13 13 -10 15 -16 6 -21 -6
-4 -8 -13 -4 -19 5 -7 9 -38 9 -69 1 -32 4 -65 8 -73 3 -8 2 -15 -2 -15 -11 0
-8 -74 3 -82 6 -5 5 -8 -3 -8 -10 0 -10 -5 -2 -20 6 -11 7 -20 2 -20 -5 0 -9
-7 -9 -15 0 -8 5 -15 11 -15 6 0 4 -5 -4 -10 -9 -6 -11 -10 -3 -10 14 0 6 -31
-11 -42 -8 -5 -7 -8 1 -8 9 0 12 -30 12 -114 -1 -63 2 -119 5 -125 4 -6 4 -11
-1 -11 -12 0 -10 -74 2 -82 6 -5 5 -8 -3 -8 -10 0 -10 -5 -2 -20 6 -11 7 -20
2 -20 -5 0 -9 -7 -9 -15 0 -8 5 -15 11 -15 6 0 4 -5 -4 -10 -8 -5 -10 -10 -3
-10 15 0 4 -40 -11 -40 -6 0 -5 -4 3 -9 9 -6 12 -22 9 -50 -2 -24 1 -41 7 -41
5 0 3 -5 -5 -10 -9 -6 -11 -10 -3 -10 14 0 6 -31 -11 -42 -8 -5 -7 -8 1 -8 9
0 12 -30 12 -114 -1 -63 2 -119 5 -125 4 -6 4 -11 -1 -11 -12 0 -10 -74 2 -82
6 -5 5 -8 -3 -8 -10 0 -10 -5 -2 -20 6 -11 7 -20 2 -20 -5 0 -9 -7 -9 -15 0
-8 5 -15 11 -15 6 0 4 -5 -4 -10 -9 -6 -11 -10 -3 -10 14 0 6 -31 -11 -42 -8
-5 -7 -8 1 -8 9 0 12 -30 12 -114 -1 -63 2 -119 5 -125 4 -6 4 -11 -1 -11 -12
0 -10 -74 2 -82 6 -5 5 -8 -3 -8 -10 0 -10 -5 -2 -20 6 -11 7 -20 2 -20 -5 0
-9 -7 -9 -15 0 -8 5 -15 11 -15 6 0 4 -5 -4 -10 -9 -6 -11 -10 -3 -10 14 0 6
-31 -11 -42 -8 -5 -7 -8 1 -8 8 0 12 -45 12 -166 0 -92 2 -168 4 -170 3 -3 66
-5 122 -3 25 0 465 0 485 0 116 -4 176 1 187 16 7 9 9 21 6 26 -9 15 -9 138 0
144 4 2 4 9 0 16 -11 18 -9 137 2 137 7 0 7 3 0 8 -13 9 -15 123 -2 115 5 -3
4 3 -1 14 -6 11 -7 25 -2 33 5 8 5 21 1 29 -9 20 -7 113 2 128 4 7 4 14 0 16
-9 6 -9 129 0 144 4 6 4 13 0 17 -11 11 -9 136 2 136 7 0 7 3 0 8 -13 9 -15
123 -2 115 5 -3 4 3 -1 14 -6 11 -7 25 -2 33 5 8 5 21 1 29 -9 20 -7 113 2
128 4 7 4 14 0 16 -9 6 -9 129 0 144 4 6 4 13 0 17 -11 11 -9 136 2 136 7 0 7
3 0 8 -13 9 -15 123 -2 115 5 -3 4 3 -1 14 -6 11 -7 25 -2 33 5 8 5 21 1 29
-9 20 -7 113 2 128 4 7 4 14 0 16 -10 6 -9 129 0 145 4 6 4 13 0 15 -5 3 -8
32 -7 64 1 32 -4 64 -10 72 -9 12 -8 13 7 8 14 -5 16 -3 9 11 -5 9 -8 32 -7
50 0 17 -3 32 -7 32 -4 0 -8 18 -8 40 0 22 -3 40 -7 40 -5 0 -9 15 -10 32 -2
18 -7 34 -13 36 -5 2 -10 15 -10 28 0 14 -4 22 -10 19 -6 -3 -7 1 -4 9 3 9 1
16 -5 16 -6 0 -8 7 -4 17 4 11 3 14 -5 9 -8 -5 -12 0 -12 13 0 12 -5 21 -11
21 -5 0 -7 5 -4 10 3 6 1 10 -6 10 -7 0 -10 3 -6 6 3 3 -3 15 -13 27 -11 11
-17 25 -13 30 4 6 1 7 -6 3 -8 -5 -14 0 -18 13 -3 12 -9 21 -14 21 -5 0 -9 7
-9 16 0 8 -3 14 -7 12 -5 -2 -20 9 -35 24 -15 15 -24 28 -22 28 3 0 -1 7 -10
15 -8 8 -20 15 -26 15 -6 0 -8 5 -5 10 3 6 2 10 -3 10 -5 0 -21 11 -35 24 -15
14 -40 33 -57 42 -16 10 -30 22 -30 26 0 4 -7 8 -15 8 -8 0 -15 5 -15 10 0 6
-7 10 -15 10 -8 0 -15 4 -15 9 0 5 -13 14 -30 20 -16 5 -30 15 -30 20 0 6 -3
10 -7 9 -5 -2 -37 11 -73 28 -36 18 -83 39 -105 48 -22 9 -48 22 -59 27 -13 7
-16 7 -12 0 4 -7 1 -8 -8 -5 -9 3 -16 10 -16 16 0 5 -4 7 -10 3 -5 -3 -25 1
-44 9 -26 11 -36 11 -40 3 -3 -9 -5 -9 -5 1 -1 6 -12 12 -24 12 -13 0 -27 3
-30 6 -4 4 -21 8 -39 10 -18 2 -55 6 -83 10 -27 4 -274 9 -548 11 l-499 4 3
-33z"/>
<path d="M2567 8302 l-109 -3 5 -40 c2 -21 0 -42 -5 -45 -5 -3 -4 -12 3 -20 9
-11 8 -14 -2 -14 -11 0 -11 -2 1 -10 11 -7 11 -10 2 -10 -7 0 -10 -5 -7 -10 9
-15 10 -104 1 -118 -4 -7 -2 -12 4 -12 7 0 8 -6 0 -19 -6 -12 -6 -22 -1 -25
10 -7 9 -25 -2 -43 -5 -7 -4 -13 1 -13 4 0 6 -22 2 -50 -4 -27 -4 -50 -1 -50
9 0 7 -78 -2 -86 -4 -4 -2 -13 4 -21 9 -10 8 -13 -2 -13 -11 0 -11 -2 1 -10
11 -7 11 -10 2 -10 -7 0 -10 -5 -7 -10 9 -15 10 -104 1 -118 -4 -7 -2 -12 4
-12 7 0 8 -6 0 -19 -6 -12 -6 -22 -1 -25 10 -7 9 -25 -2 -43 -5 -7 -4 -13 1
-13 4 0 6 -22 2 -50 -4 -27 -4 -50 -1 -50 9 0 7 -78 -2 -86 -4 -4 -2 -13 4
-21 9 -10 8 -13 -2 -13 -11 0 -11 -2 1 -10 11 -7 11 -10 2 -10 -7 0 -10 -5 -7
-10 9 -15 10 -104 1 -118 -4 -7 -2 -12 4 -12 7 0 8 -6 0 -19 -6 -12 -6 -22 -1
-25 10 -7 9 -25 -2 -43 -5 -7 -4 -13 1 -13 4 0 6 -22 2 -50 -4 -27 -4 -50 -1
-50 9 0 7 -78 -2 -86 -4 -4 -2 -13 4 -21 9 -10 8 -13 -2 -13 -11 0 -11 -2 1
-10 11 -7 11 -10 2 -10 -7 0 -10 -5 -7 -10 9 -15 10 -104 1 -118 -4 -7 -2 -12
4 -12 7 0 8 -6 0 -19 -6 -12 -6 -22 -1 -25 10 -7 9 -25 -2 -43 -5 -7 -4 -13 1
-13 4 0 6 -22 2 -50 -4 -27 -4 -50 -1 -50 9 0 7 -78 -2 -86 -4 -4 -2 -13 4
-21 9 -10 8 -13 -2 -13 -11 0 -11 -2 1 -10 11 -7 11 -10 2 -10 -7 0 -10 -5 -7
-10 9 -15 10 -104 1 -118 -4 -7 -2 -12 4 -12 7 0 8 -6 0 -19 -6 -12 -6 -22 -1
-25 10 -7 9 -25 -2 -43 -5 -7 -4 -13 1 -13 4 0 6 -22 2 -50 -4 -27 -4 -50 -1
-50 9 0 7 -78 -2 -86 -4 -4 -2 -13 4 -21 9 -10 8 -13 -2 -13 -11 0 -11 -2 1
-10 11 -7 11 -10 2 -10 -7 0 -10 -5 -7 -10 9 -15 10 -104 1 -118 -4 -7 -2 -12
4 -12 7 0 8 -6 0 -19 -6 -12 -6 -22 -1 -25 10 -7 9 -25 -2 -43 -5 -7 -4 -13 1
-13 4 0 6 -22 2 -50 -4 -27 -4 -50 -1 -50 9 0 7 -78 -2 -86 -4 -4 -2 -13 4
-21 9 -10 8 -13 -2 -13 -11 0 -11 -2 1 -10 11 -7 11 -10 2 -10 -7 0 -10 -5 -7
-10 9 -15 10 -104 1 -118 -4 -7 -2 -12 4 -12 7 0 8 -6 0 -19 -6 -12 -6 -22 -1
-25 10 -7 9 -25 -2 -43 -5 -7 -4 -13 1 -13 4 0 6 -22 2 -50 -4 -27 -4 -50 -1
-50 3 0 6 -13 6 -30 0 -16 -4 -30 -8 -30 -4 0 -4 -8 1 -17 10 -21 10 -33 -1
-50 -5 -8 -4 -13 3 -13 6 0 9 -4 6 -8 -3 -5 -5 -40 -5 -78 -1 -38 -1 -87 -2
-109 -2 -49 -1 -55 4 -80 2 -11 0 -26 -6 -32 -6 -9 -6 -13 2 -13 7 0 10 -4 7
-8 -3 -5 -5 -40 -5 -78 -1 -38 -1 -87 -2 -109 -2 -49 -1 -55 4 -80 2 -11 0
-26 -6 -32 -6 -9 -6 -13 2 -13 7 0 10 -4 7 -8 -3 -5 -5 -40 -5 -78 -1 -38 -1
-87 -2 -109 -2 -49 -1 -55 4 -80 2 -11 0 -26 -6 -32 -6 -9 -6 -13 2 -13 7 0
10 -4 7 -8 -3 -5 -5 -40 -5 -78 -1 -38 -1 -87 -2 -109 -2 -49 -1 -55 4 -80 2
-11 0 -26 -6 -32 -6 -9 -6 -13 2 -13 7 0 10 -4 7 -8 -5 -9 -7 -78 -5 -209 0
-40 -2 -77 -6 -82 -3 -6 2 -11 14 -11 11 0 23 5 26 10 4 6 11 8 16 5 5 -4 9
-1 9 4 0 6 3 10 8 9 4 -1 39 14 78 35 40 20 74 33 78 30 3 -4 6 -2 6 4 0 6 15
16 33 24 17 7 34 15 37 18 9 10 105 55 113 53 4 -1 7 3 7 10 0 6 3 8 6 5 4 -4
19 2 34 13 15 11 30 17 34 13 3 -3 6 -1 6 6 0 8 7 11 15 7 8 -3 15 -1 15 4 0
11 79 46 93 42 5 -1 6 2 3 7 -5 8 19 19 35 17 4 -1 16 8 28 18 12 11 24 17 27
13 3 -3 14 3 25 14 11 11 24 17 28 14 5 -2 14 2 21 10 7 8 15 13 19 11 4 -3 6
20 5 49 -1 35 3 52 9 48 6 -4 7 -1 1 8 -13 21 -13 189 0 189 7 0 7 3 1 8 -15
11 -17 32 -5 47 6 8 7 16 2 19 -5 3 -8 26 -7 51 2 28 -1 43 -7 39 -7 -4 -7 0
-1 12 5 11 9 40 8 67 -1 28 2 47 9 47 8 0 8 3 0 8 -14 10 -14 182 0 182 7 0 8
3 1 8 -15 11 -17 32 -5 47 6 8 7 16 2 19 -5 3 -8 26 -7 51 2 28 -1 43 -7 39
-6 -4 -7 0 -1 12 5 11 9 39 8 64 -1 25 3 48 9 52 8 5 7 8 -1 8 -8 0 -11 18 -8
55 2 35 -1 53 -7 49 -7 -4 -7 0 0 12 5 11 7 25 4 33 -3 9 0 11 8 6 10 -6 11
-4 4 6 -13 20 -13 101 0 118 8 11 8 13 -1 8 -8 -5 -11 4 -9 30 l2 38 56 1 c32
1 64 4 73 7 8 4 15 3 15 -1 0 -4 16 -7 35 -7 19 0 35 2 35 5 0 3 17 4 38 2 65
-5 161 -4 171 2 5 4 12 2 16 -3 3 -7 15 -7 29 -1 13 5 27 6 30 3 8 -8 102 -7
116 2 5 3 10 3 10 -2 0 -4 16 -8 35 -8 19 0 35 2 35 5 0 7 79 4 86 -3 3 -3 17
-2 30 3 14 6 26 6 29 0 3 -5 15 -6 28 -1 12 5 32 5 44 0 13 -5 25 -4 28 2 4 5
11 7 16 3 13 -7 123 -9 136 -1 5 3 15 2 22 -3 8 -4 27 -4 42 0 17 5 29 5 29 0
0 -6 9 -6 23 -1 12 5 32 5 44 0 12 -4 25 -4 27 0 3 5 16 6 30 4 22 -5 23 -2
22 36 -1 23 3 41 8 41 7 0 8 3 1 8 -13 9 -15 123 -2 115 5 -3 4 3 -1 14 -6 11
-7 25 -2 33 5 8 5 21 1 29 -9 20 -7 113 2 128 4 7 4 14 0 16 -10 6 -9 129 0
145 4 6 3 13 -3 17 -6 4 -8 11 -5 16 4 5 -252 9 -662 9 l-669 0 0 85 c0 54 3
85 10 85 7 0 8 3 1 8 -15 11 -17 32 -5 47 6 8 7 16 2 19 -5 3 -8 26 -7 51 2
28 -1 43 -7 39 -7 -4 -7 0 -1 12 5 11 9 40 8 67 -1 28 2 47 9 47 8 0 8 3 0 8
-14 10 -14 182 0 182 7 0 8 3 1 8 -15 11 -17 32 -5 47 6 8 7 16 2 19 -5 3 -8
26 -7 51 2 28 -1 43 -7 39 -6 -4 -7 0 -1 12 5 11 9 39 8 64 -1 25 3 48 9 52 8
5 7 8 -1 8 -8 0 -11 18 -8 55 2 35 -1 53 -7 49 -7 -4 -7 0 0 12 5 11 7 25 4
33 -3 9 0 11 8 6 10 -6 11 -4 4 6 -11 18 -13 188 -2 195 5 3 5 11 1 17 -10 16
-11 297 -1 303 5 3 5 11 1 17 -10 16 -11 297 -1 303 5 3 5 11 1 17 -10 16 -11
297 -1 303 5 3 5 11 1 17 -12 19 -11 257 2 257 6 0 6 3 -1 8 -6 4 -11 27 -10
52 l1 45 -53 1 c-29 1 -54 3 -56 5 -2 2 -111 2 -241 -1 -130 -3 -239 -3 -243
0 -4 3 -56 4 -115 2z"/>
<path d="M3807 4623 c-4 -3 -2 -14 4 -24 5 -11 6 -19 1 -19 -5 0 -9 -7 -9 -15
0 -8 5 -15 11 -15 6 0 4 -5 -4 -10 -9 -6 -11 -10 -3 -10 14 0 6 -31 -11 -42
-8 -5 -7 -8 1 -8 9 0 12 -30 12 -114 -1 -63 2 -119 5 -125 4 -6 4 -11 -1 -11
-12 0 -10 -74 2 -82 6 -5 5 -8 -3 -8 -10 0 -10 -5 -2 -20 6 -11 7 -20 2 -20
-5 0 -9 -7 -9 -15 0 -8 5 -15 11 -15 6 0 4 -5 -4 -10 -9 -6 -11 -10 -3 -10 14
0 6 -31 -11 -42 -8 -5 -7 -8 1 -8 9 0 12 -44 12 -174 -1 -96 2 -179 6 -185 3
-6 3 -11 -2 -11 -8 0 -7 -174 1 -197 3 -7 2 -13 -3 -13 -4 0 -8 -7 -8 -15 0
-8 5 -15 11 -15 6 0 4 -5 -4 -10 -8 -5 -10 -10 -3 -10 6 0 9 -9 6 -20 -3 -11
-10 -20 -16 -20 -6 0 -2 -7 9 -15 14 -11 15 -14 4 -15 -13 0 -13 -1 0 -10 11
-7 11 -10 2 -10 -9 0 -10 -5 -4 -17 11 -22 -2 -63 -20 -64 -140 -5 -189 -9
-218 -14 -19 -3 -51 -8 -70 -10 -19 -3 -46 -7 -60 -11 -14 -3 -34 -7 -45 -9
-11 -2 -20 -4 -20 -5 0 -2 -5 -3 -65 -18 -20 -5 -45 -14 -58 -21 -12 -6 -22
-9 -22 -7 0 5 -76 -27 -172 -72 -21 -9 -38 -21 -38 -25 0 -5 -4 -5 -10 -2 -5
3 -10 1 -10 -4 0 -6 -5 -11 -11 -11 -12 0 -103 -60 -107 -72 -2 -4 -10 -8 -17
-8 -8 0 -18 -7 -23 -16 -5 -9 -12 -15 -15 -15 -20 3 -28 0 -23 -8 3 -5 -4 -15
-17 -24 -27 -17 -110 -97 -101 -97 3 0 -8 -12 -25 -27 -17 -15 -31 -31 -31
-36 0 -5 -6 -15 -12 -22 -29 -32 -36 -43 -42 -63 -4 -12 -12 -22 -17 -22 -6 0
-7 -4 -4 -10 3 -5 1 -10 -5 -10 -7 0 -10 -6 -8 -12 3 -7 -1 -18 -7 -24 -6 -7
-20 -38 -30 -71 -10 -32 -23 -61 -29 -65 -8 -5 -7 -8 2 -8 10 0 10 -5 2 -20
-6 -10 -10 -23 -9 -27 5 -30 -2 -63 -13 -57 -7 5 -8 3 -2 -7 10 -17 11 -47 2
-76 -4 -13 -4 -23 0 -23 5 0 7 -22 6 -50 -1 -31 3 -50 10 -50 6 0 4 -5 -4 -10
-9 -6 -10 -10 -3 -10 6 0 10 -9 8 -20 -2 -11 0 -20 6 -20 5 0 9 -5 9 -11 0 -5
-6 -7 -12 -3 -10 6 -10 5 -1 -7 7 -9 14 -24 16 -35 2 -10 9 -30 14 -44 6 -14
9 -28 6 -32 -2 -5 0 -8 5 -8 9 0 18 -21 27 -59 2 -8 7 -17 12 -20 4 -3 14 -18
22 -33 8 -16 18 -28 23 -28 4 0 8 -6 8 -14 0 -7 11 -25 25 -40 14 -15 25 -31
25 -37 0 -5 7 -9 17 -9 9 0 14 -2 11 -6 -6 -6 55 -74 66 -74 4 0 19 -14 33
-30 14 -17 27 -29 30 -26 2 2 18 -9 34 -25 16 -16 44 -36 62 -45 17 -9 34 -20
37 -23 15 -19 200 -111 222 -111 10 0 18 -4 18 -9 0 -5 12 -11 28 -14 15 -3
41 -11 57 -18 17 -6 37 -13 45 -15 8 -1 22 -4 30 -7 57 -15 97 -24 153 -33 15
-2 42 -7 60 -11 17 -3 944 -8 2060 -10 l2027 -3 0 305 0 305 -32 1 c-18 1 -37
0 -43 -1 -5 -1 -75 -1 -155 0 -80 1 -152 2 -160 2 -8 -1 -143 -1 -300 0 -157
0 -291 -1 -297 -1 -27 -2 -50 -2 -273 -2 -126 0 -238 0 -247 0 -10 0 -128 0
-263 0 -135 0 -249 0 -255 -1 -5 0 -75 0 -155 1 -80 0 -152 0 -160 0 -8 -1
-80 -1 -160 0 -80 0 -152 0 -160 0 -8 -1 -80 -1 -160 0 -80 0 -152 0 -160 0
-8 -1 -143 -1 -300 -1 -157 1 -292 1 -300 1 -275 -4 -524 16 -541 43 -3 5 -9
9 -13 9 -3 -1 -8 0 -11 0 -3 1 -9 2 -14 3 -18 2 -107 65 -131 93 -34 38 -76
126 -71 147 1 5 -4 13 -11 17 -10 7 -10 9 1 9 9 0 10 4 4 13 -17 23 -4 208 16
215 6 2 8 8 5 13 -3 6 0 16 6 24 7 8 9 15 4 15 -5 0 -2 5 6 10 8 5 15 14 15
19 0 5 12 20 27 34 15 14 24 28 21 31 -4 3 1 6 10 6 9 0 17 5 17 11 0 5 4 8 9
5 5 -3 12 1 15 10 3 8 10 12 16 9 5 -3 10 -2 10 2 0 11 90 44 101 37 5 -3 9
-1 9 4 0 5 6 9 13 10 6 0 37 5 67 10 30 6 255 11 499 11 257 1 451 6 460 11 9
5 12 10 6 10 -6 0 -10 33 -10 79 0 44 3 77 8 74 5 -3 4 4 -2 16 -9 16 -9 21 1
21 8 0 9 3 3 8 -13 9 -15 123 -2 115 6 -4 7 -1 2 7 -12 20 -12 110 0 110 7 0
7 3 0 8 -13 9 -15 123 -2 115 5 -3 4 3 -1 14 -6 11 -7 25 -2 33 5 8 5 21 1 29
-8 19 -7 113 2 128 4 5 4 13 0 17 -11 11 -9 136 2 136 7 0 7 3 0 8 -13 9 -15
123 -2 115 5 -3 4 3 -1 14 -6 11 -7 25 -2 33 5 8 5 21 1 29 -8 19 -7 113 2
128 4 5 4 13 0 17 -11 11 -9 136 2 136 7 0 7 3 0 8 -13 9 -15 123 -2 115 5 -3
4 3 -1 14 -6 11 -7 25 -2 33 5 8 6 19 3 24 -10 16 -10 175 0 169 5 -3 4 4 -2
16 -9 16 -9 21 1 21 8 0 9 3 3 8 -13 9 -15 123 -2 115 5 -3 5 2 0 13 -6 11 -8
36 -6 56 l4 38 -399 0 c-219 0 -402 -3 -405 -7z"/>
</g>
</svg>
