<?xml version="1.0" standalone="no"?>
<!DOCTYPE svg PUBLIC "-//W3C//DTD SVG 20010904//EN"
 "http://www.w3.org/TR/2001/REC-SVG-20010904/DTD/svg10.dtd">
<svg version="1.0" xmlns="http://www.w3.org/2000/svg"
 width="1000.000000pt" height="1000.000000pt" viewBox="0 0 1000.000000 1000.000000"
 preserveAspectRatio="xMidYMid meet">
<metadata>
Created by potrace 1.11, written by Peter Selinger 2001-2013
</metadata>
<g transform="translate(0.000000,1000.000000) scale(0.100000,-0.100000)"
fill="#000000" stroke="none">
<path d="M6 9978 c-3 -13 -6 -2263 -6 -5000 l0 -4978 5000 0 5000 0 0 5000 0
5000 -4994 0 -4994 0 -6 -22z m214 -88 l0 -90 -100 0 -100 0 0 84 c0 58 4 86
13 89 6 3 51 6 100 6 l87 1 0 -90z m230 0 l0 -90 -105 0 -105 0 0 90 0 90 105
0 105 0 0 -90z m218 3 l-3 -88 -97 -3 -98 -3 0 91 0 90 100 0 101 0 -3 -87z
m9300 75 c7 -7 12 -43 12 -90 l0 -78 -4645 0 -4645 0 0 90 0 90 4633 0 c3590
0 4636 -3 4645 -12z m-1886 -713 c21 -55 38 -101 38 -102 0 -1 -24 -9 -52 -19
-218 -71 -373 -228 -398 -402 -27 -192 75 -408 295 -627 216 -215 437 -324
598 -296 74 13 150 48 204 93 56 47 137 141 169 196 l26 44 -188 189 -189 189
-100 -100 c-55 -55 -105 -100 -110 -100 -6 0 -42 32 -80 70 l-70 70 185 185
c102 102 189 185 195 185 6 0 151 -141 323 -313 l313 -313 -16 -38 c-24 -57
-101 -182 -158 -256 -123 -159 -253 -266 -379 -310 -96 -34 -250 -39 -359 -11
-181 45 -377 168 -558 351 -186 187 -296 378 -330 574 -51 284 81 556 360 741
80 54 194 106 224 102 14 -1 28 -26 57 -102z m-1091 -1135 c85 -16 175 -67
254 -145 81 -79 112 -123 145 -210 33 -88 32 -213 -4 -319 -15 -43 -25 -80
-24 -81 2 -1 202 -51 446 -111 244 -60 449 -112 455 -116 8 -5 -21 -40 -85
-105 l-97 -97 -418 112 -418 111 -98 -97 -97 -97 260 -260 c143 -143 260 -265
260 -270 0 -13 -152 -165 -165 -165 -5 0 -297 287 -649 639 -558 558 -637 641
-628 657 13 25 329 335 409 401 153 127 311 180 454 153z m-1109 -947 c38 -37
68 -72 68 -78 0 -5 -126 -136 -280 -290 -154 -154 -280 -284 -280 -290 0 -6
86 -96 190 -200 l190 -190 268 268 c147 147 271 267 277 267 13 0 145 -132
145 -145 0 -5 -120 -130 -267 -277 l-268 -268 223 -222 222 -223 290 290 290
290 70 -70 c38 -38 70 -74 70 -80 0 -5 -167 -177 -370 -380 l-370 -370 -640
640 c-352 352 -640 647 -640 655 0 16 719 740 735 740 5 0 40 -30 77 -67z
m-969 -1186 c33 -12 87 -45 121 -73 176 -145 217 -315 123 -506 -18 -38 -32
-68 -31 -68 2 0 24 13 50 30 53 33 147 67 215 76 55 7 130 -7 196 -38 76 -35
192 -158 239 -252 35 -72 39 -87 42 -177 4 -79 0 -111 -17 -166 -40 -131 -76
-178 -370 -475 -151 -153 -280 -278 -285 -278 -6 0 -298 287 -650 639 -563
563 -637 641 -628 658 18 33 464 465 537 520 95 72 173 112 248 128 75 16 133
11 210 -18z m-1184 -1039 c60 -130 62 -119 -21 -159 -178 -84 -371 -250 -430
-369 -52 -103 -34 -202 49 -281 120 -115 232 -107 543 36 237 108 386 146 493
125 97 -19 163 -55 242 -134 156 -156 193 -334 111 -536 -55 -136 -196 -304
-369 -442 -97 -77 -230 -158 -262 -158 -18 0 -165 135 -165 151 0 4 28 20 63
36 161 76 325 199 429 323 156 186 165 322 32 454 -57 56 -130 82 -200 71 -65
-9 -164 -45 -320 -115 -316 -142 -452 -160 -621 -80 -93 43 -194 143 -241 239
-35 71 -37 80 -36 170 1 76 6 110 26 162 75 200 297 422 557 555 36 19 70 34
74 34 5 0 25 -37 46 -82z m-167 -1893 c179 -280 138 -548 -120 -786 -250 -230
-513 -235 -782 -14 -36 30 -258 248 -495 484 l-430 431 85 85 85 85 435 -434
c239 -239 463 -454 498 -479 174 -127 341 -117 485 29 81 82 111 148 111 240
0 64 -4 81 -43 160 -43 88 -47 92 -497 544 -250 251 -454 463 -454 471 0 9 36
51 81 94 l81 79 458 -460 c336 -337 470 -478 502 -529z m-2070 -1272 l568
-568 280 280 280 280 70 -70 c38 -38 70 -74 70 -80 0 -5 -162 -172 -360 -370
l-360 -360 -647 647 -647 647 79 80 c43 45 83 81 89 81 6 0 266 -255 578 -567z"/>
<path d="M70 9921 c0 -5 7 -14 15 -21 14 -12 14 -15 -1 -31 -22 -24 -10 -37
14 -16 17 15 19 15 35 0 9 -9 20 -14 24 -10 4 4 -1 15 -10 24 -15 16 -15 18 0
35 21 24 8 36 -16 14 -16 -15 -19 -15 -31 -1 -14 17 -30 20 -30 6z"/>
<path d="M310 9850 c0 -5 16 -10 35 -10 19 0 35 5 35 10 0 6 -16 10 -35 10
-19 0 -35 -4 -35 -10z"/>
<path d="M530 9885 l0 -45 45 0 45 0 0 45 0 45 -45 0 -45 0 0 -45z m70 0 c0
-20 -5 -25 -25 -25 -20 0 -25 5 -25 25 0 20 5 25 25 25 20 0 25 -5 25 -25z"/>
<path d="M6795 7872 c-79 -28 -132 -67 -250 -183 l-110 -108 230 -231 c126
-126 235 -230 242 -230 13 0 159 153 215 227 115 152 104 297 -35 430 -107
103 -194 131 -292 95z"/>
<path d="M4678 5757 c-80 -30 -140 -77 -293 -228 l-160 -158 198 -198 198
-198 168 170 c129 131 174 184 197 230 36 73 39 149 9 210 -23 48 -108 136
-154 159 -44 23 -118 29 -163 13z"/>
<path d="M5245 5227 c-89 -30 -134 -64 -303 -230 l-173 -171 228 -228 228
-228 143 143 c208 207 262 290 262 405 0 71 -30 138 -93 207 -83 93 -198 133
-292 102z"/>
</g>
</svg>
