<?xml version="1.0" standalone="no"?>
<!DOCTYPE svg PUBLIC "-//W3C//DTD SVG 20010904//EN"
 "http://www.w3.org/TR/2001/REC-SVG-20010904/DTD/svg10.dtd">
<svg version="1.0" xmlns="http://www.w3.org/2000/svg"
 width="1000.000000pt" height="1000.000000pt" viewBox="0 0 1000.000000 1000.000000"
 preserveAspectRatio="xMidYMid meet">
<metadata>
Created by potrace 1.11, written by Peter Selinger 2001-2013
</metadata>
<g transform="translate(0.000000,1000.000000) scale(0.100000,-0.100000)"
fill="#000000" stroke="none">
<path d="M0 5000 l0 -5000 5000 0 5000 0 0 5000 0 5000 -5000 0 -5000 0 0
-5000z m7991 3905 c70 -9 187 -28 260 -43 l134 -27 3 -238 c1 -130 0 -237 -3
-237 -3 0 -58 18 -123 41 -143 49 -315 92 -442 110 -133 19 -395 16 -489 -4
-144 -32 -259 -105 -301 -192 -31 -63 -26 -170 11 -240 38 -74 104 -117 569
-365 496 -265 608 -336 746 -474 158 -159 213 -285 221 -511 4 -110 2 -144
-16 -220 -86 -361 -373 -595 -821 -670 -53 -9 -187 -19 -305 -22 -284 -8 -507
10 -847 69 l-128 22 0 249 c0 233 1 249 18 242 86 -35 222 -80 315 -105 503
-134 875 -94 1066 115 84 93 112 212 76 332 -34 116 -112 178 -449 358 -493
265 -555 299 -650 362 -234 156 -356 340 -387 583 -27 216 46 430 203 596 163
172 339 245 688 288 82 10 531 -3 651 -19z m-5691 -1335 l0 -1290 700 0 700 0
0 -200 0 -200 -1000 0 -1000 0 0 1490 0 1490 300 0 300 0 0 -1290z m2280 296
c0 -992 5 -1191 35 -1310 31 -120 112 -234 208 -290 100 -59 273 -69 395 -24
151 56 234 160 278 348 17 69 18 167 21 1173 l4 1097 255 0 256 0 -5 -1067
c-4 -1136 -6 -1176 -55 -1383 -35 -147 -79 -227 -181 -333 -169 -177 -428
-267 -764 -267 -263 0 -493 62 -663 177 -79 54 -193 175 -242 259 -52 87 -96
219 -118 354 -16 95 -18 212 -21 1183 l-4 1077 301 0 300 0 0 -994z m4761
-3816 c182 -18 460 -71 487 -92 9 -8 12 -68 12 -239 0 -126 -4 -229 -8 -229
-4 0 -47 16 -94 34 -99 40 -272 88 -408 112 -141 25 -343 23 -445 -5 -356 -96
-567 -360 -653 -816 -24 -130 -24 -496 1 -619 88 -435 331 -720 682 -799 94
-21 222 -31 289 -23 l56 7 0 525 0 524 290 0 290 0 0 -675 0 -675 -27 -11
c-64 -24 -309 -78 -453 -100 -216 -33 -547 -34 -692 -1 -281 62 -512 184 -693
367 -110 111 -180 210 -250 357 -112 233 -157 465 -156 803 1 415 83 722 267
1002 105 158 286 324 445 408 130 68 332 124 525 144 115 12 416 13 535 1z
m-7606 -89 c148 -33 234 -78 325 -170 131 -132 184 -268 184 -476 0 -289 -118
-474 -414 -644 l-102 -59 84 -40 c176 -85 338 -211 417 -326 48 -69 98 -181
122 -271 31 -115 31 -300 0 -410 -68 -242 -240 -419 -484 -499 -158 -52 -229
-56 -931 -56 l-646 0 0 1491 0 1490 673 -4 c651 -3 675 -4 772 -26z m2985
-171 l0 -200 -635 0 -635 0 0 -420 0 -420 535 0 535 0 0 -185 0 -185 -535 0
-535 0 0 -485 0 -485 685 0 685 0 0 -200 0 -200 -985 0 -985 0 0 1490 0 1490
935 0 935 0 0 -200z m1992 168 c144 -39 228 -87 323 -182 93 -93 153 -198 186
-323 26 -99 29 -294 7 -398 -57 -255 -204 -469 -425 -615 l-101 -67 379 -678
c208 -372 379 -679 379 -681 0 -2 -155 -4 -344 -4 l-343 0 -339 610 -339 609
-107 1 -108 0 0 -610 0 -610 -305 0 -305 0 0 1491 0 1490 673 -3 672 -4 97
-26z"/>
<path d="M900 3180 l0 -413 143 6 c232 9 349 50 451 157 92 96 127 186 127
326 0 100 -18 164 -62 217 -68 82 -160 106 -446 114 l-213 6 0 -413z"/>
<path d="M900 1889 l0 -481 233 5 c243 5 303 14 390 56 144 70 228 260 199
449 -46 294 -299 452 -724 452 l-98 0 0 -481z"/>
<path d="M5880 3108 l0 -481 123 6 c212 11 348 60 451 163 62 62 125 179 146
272 40 173 -10 371 -113 452 -61 48 -206 70 -464 70 l-143 0 0 -482z"/>
</g>
</svg>
