<?xml version="1.0" standalone="no"?>
<!DOCTYPE svg PUBLIC "-//W3C//DTD SVG 20010904//EN"
 "http://www.w3.org/TR/2001/REC-SVG-20010904/DTD/svg10.dtd">
<svg version="1.0" xmlns="http://www.w3.org/2000/svg"
 width="1000.000000pt" height="1000.000000pt" viewBox="0 0 1000.000000 1000.000000"
 preserveAspectRatio="xMidYMid meet">
<metadata>
Created by potrace 1.11, written by Peter Selinger 2001-2013
</metadata>
<g transform="translate(0.000000,1000.000000) scale(0.100000,-0.100000)"
fill="#000000" stroke="none">
<path d="M0 5000 l0 -5000 5000 0 5000 0 0 5000 0 5000 -5000 0 -5000 0 0
-5000z m7098 2684 c42 -9 123 -34 181 -56 139 -52 188 -43 210 38 6 23 14 30
39 32 l32 3 0 -345 0 -346 -30 0 c-24 0 -31 5 -35 28 -54 265 -131 390 -293
475 -229 121 -484 69 -576 -116 -33 -65 -35 -160 -6 -224 41 -91 174 -189 500
-369 324 -178 393 -228 471 -337 70 -100 94 -178 93 -302 -1 -76 -6 -114 -22
-160 -59 -162 -211 -303 -387 -358 -61 -19 -92 -22 -230 -21 -155 0 -164 2
-275 36 -247 78 -288 81 -315 28 -8 -16 -15 -38 -15 -50 0 -16 -6 -20 -30 -20
l-30 0 0 340 0 340 29 0 c27 0 29 -3 36 -47 9 -61 51 -196 77 -247 27 -54 103
-132 166 -173 164 -105 396 -128 549 -53 207 102 245 343 79 510 -56 58 -90
80 -326 215 -400 228 -516 322 -587 470 -32 68 -37 88 -41 175 -6 121 17 206
79 299 132 198 390 290 657 235z m-3980 -51 c-3 -28 -4 -28 -94 -34 -135 -10
-212 -59 -231 -147 -4 -20 -8 -379 -8 -797 0 -740 1 -761 20 -800 14 -29 30
-43 55 -52 44 -15 518 -17 610 -3 156 25 269 121 361 306 28 57 57 104 63 104
38 -1 36 -17 -48 -281 l-84 -264 -776 -3 -776 -2 0 30 0 30 73 0 c87 0 151 27
180 77 31 54 37 184 37 863 0 679 -6 808 -37 864 -28 49 -93 76 -180 76 l-73
0 0 30 0 30 456 0 455 0 -3 -27z m1752 -3 l0 -30 -73 0 c-100 0 -152 -27 -187
-95 l-25 -50 0 -595 c0 -538 2 -605 19 -695 32 -174 81 -263 182 -330 102 -68
149 -80 319 -80 138 1 156 3 230 29 151 52 261 140 315 251 59 120 64 187 65
820 0 608 -3 651 -48 693 -37 35 -92 52 -167 52 l-70 0 0 30 0 30 355 0 355 0
0 -29 0 -29 -78 -3 c-88 -4 -131 -26 -171 -85 -36 -52 -40 -130 -41 -679 0
-523 -5 -624 -40 -753 -31 -112 -65 -169 -154 -258 -62 -62 -101 -90 -163
-122 -130 -64 -204 -77 -433 -76 -211 1 -288 14 -407 68 -124 58 -247 186
-298 315 -50 123 -57 215 -64 866 -6 587 -7 601 -28 640 -31 58 -72 78 -173
85 -84 5 -85 5 -88 33 l-3 27 435 0 436 0 0 -30z m3300 -3300 c36 -6 138 -36
228 -66 100 -34 170 -53 182 -49 26 8 46 40 54 88 6 32 10 37 34 37 l28 0 23
-292 c12 -161 24 -303 27 -315 4 -20 0 -23 -24 -23 -26 0 -31 7 -60 78 -71
173 -178 306 -297 369 -187 99 -469 102 -657 7 -181 -91 -321 -282 -384 -529
-35 -133 -44 -374 -20 -511 40 -233 136 -433 267 -561 221 -216 523 -261 832
-125 l58 25 -3 376 c-3 357 -4 378 -23 411 -29 49 -73 71 -158 79 -69 6 -72 7
-75 34 l-3 27 390 0 391 0 0 -30 c0 -29 -1 -30 -47 -30 -66 0 -127 -32 -150
-78 -16 -33 -18 -74 -23 -427 l-5 -390 -75 -37 c-187 -92 -396 -138 -625 -138
-364 0 -638 105 -842 323 -197 211 -288 483 -262 783 32 367 272 720 599 880
163 80 421 115 620 84z m-6030 -40 c210 -26 357 -88 459 -195 143 -149 178
-352 91 -526 -52 -102 -142 -183 -255 -227 l-49 -19 88 -28 c181 -58 300 -172
340 -330 44 -168 -8 -341 -143 -476 -81 -81 -178 -131 -311 -161 -90 -20 -126
-22 -712 -25 l-618 -4 0 30 0 31 73 0 c100 0 152 27 187 95 l25 50 3 735 c3
757 -1 863 -36 924 -28 49 -92 76 -179 76 l-73 0 0 30 0 30 513 0 c290 0 549
-4 597 -10z m2464 -177 c4 -104 10 -203 13 -220 5 -32 4 -33 -28 -33 l-34 0
-18 78 c-26 115 -67 179 -141 217 l-60 30 -358 3 -358 4 0 -396 0 -396 247 0
c264 0 354 10 406 44 42 28 85 113 93 187 6 57 8 59 35 59 l29 0 0 -350 0
-350 -28 0 c-27 0 -28 2 -44 84 -21 111 -44 148 -116 183 l-57 28 -283 3 -283
4 3 -404 c3 -366 5 -406 21 -431 9 -15 30 -30 45 -34 50 -14 601 -9 660 6 114
29 230 141 323 310 30 54 37 61 65 61 l31 0 -60 -172 c-32 -95 -71 -208 -85
-251 l-26 -77 -773 0 -773 0 0 30 0 30 68 0 c92 0 168 37 197 95 19 39 20 63
23 772 3 725 -2 882 -30 940 -22 46 -71 67 -170 71 l-88 4 0 29 0 29 774 0
773 0 7 -187z m1284 177 c231 -25 364 -91 468 -233 138 -187 105 -470 -74
-627 -56 -50 -176 -111 -264 -134 l-66 -18 237 -331 c246 -344 356 -475 438
-519 50 -28 181 -68 220 -68 19 0 23 -5 23 -30 l0 -30 -267 0 -268 0 -338 470
-338 470 -106 0 -105 0 4 -367 c4 -378 8 -411 47 -457 30 -35 92 -56 169 -56
l72 0 0 -30 0 -30 -430 0 -430 0 0 30 0 30 73 0 c133 1 189 46 207 166 13 90
13 1444 0 1544 -12 87 -29 116 -90 148 -34 17 -61 22 -117 22 l-73 0 0 30 0
30 455 0 c251 0 499 -5 553 -10z"/>
<path d="M1693 4186 c-39 -8 -76 -17 -82 -21 -8 -4 -11 -124 -11 -385 l0 -379
58 -8 c101 -14 389 -8 465 10 127 31 208 91 257 190 121 247 -10 505 -297 583
-80 22 -298 27 -390 10z"/>
<path d="M1720 3273 c-41 -1 -85 -5 -97 -8 l-23 -5 0 -405 c0 -222 4 -406 9
-409 4 -3 48 -12 97 -21 116 -21 327 -21 420 -2 146 31 269 120 322 235 24 51
27 69 27 167 0 99 -3 116 -27 168 -67 143 -180 222 -369 261 -82 16 -243 25
-359 19z"/>
<path d="M5625 4183 c-22 -2 -70 -8 -107 -14 l-68 -11 0 -415 0 -416 118 6
c201 10 329 56 423 149 154 154 155 427 2 582 -88 90 -218 132 -368 119z"/>
</g>
</svg>
