<?xml version="1.0" standalone="no"?>
<!DOCTYPE svg PUBLIC "-//W3C//DTD SVG 20010904//EN"
 "http://www.w3.org/TR/2001/REC-SVG-20010904/DTD/svg10.dtd">
<svg version="1.0" xmlns="http://www.w3.org/2000/svg"
 width="1000.000000pt" height="1000.000000pt" viewBox="0 0 1000.000000 1000.000000"
 preserveAspectRatio="xMidYMid meet">
<metadata>
Created by potrace 1.11, written by Peter Selinger 2001-2013
</metadata>
<g transform="translate(0.000000,1000.000000) scale(0.100000,-0.100000)"
fill="#000000" stroke="none">
<path d="M2350 9006 l0 -305 373 -4 c416 -4 430 -6 524 -77 49 -36 105 -129
119 -195 4 -16 7 -554 8 -1195 l2 -1165 304 -3 305 -2 -1 1162 c-1 640 -4
1186 -8 1214 -45 350 -300 674 -631 801 -174 67 -226 73 -651 73 l-344 0 0
-304z"/>
<path d="M2350 5750 l0 -2549 308 202 307 203 3 717 2 717 508 0 507 0 -1 293
c-1 160 -2 298 -3 305 -1 9 -109 12 -506 12 l-505 0 0 1325 0 1325 -310 0
-310 0 0 -2550z"/>
<path d="M3378 4623 c-2 -5 -3 -326 -3 -715 1 -706 1 -708 -20 -708 -159 -3
-305 -39 -440 -106 -265 -134 -462 -373 -536 -654 -34 -129 -33 -391 1 -515
57 -202 153 -356 305 -492 129 -114 262 -187 423 -231 l97 -27 2223 -3 2222
-2 0 305 0 305 -2162 1 c-1190 0 -2183 3 -2208 6 -129 16 -237 96 -280 208
-47 124 -35 340 25 435 26 41 82 93 123 114 76 39 136 45 485 46 187 0 342 2
346 4 5 3 7 1974 2 2024 -1 9 -68 12 -300 12 -165 0 -301 -3 -303 -7z"/>
</g>
</svg>
